PathFileType	4	(X/Y/Z)	c:/Users/goper/Files/vsCode/490R/osim_files/C05/C05_SSWS_05.trc
DataRate	CameraRate	NumFrames	NumMarkers	Units                	OrigDataRate	OrigDataStartFrame	OrigNumFrames
250.00	250.00	6	36	mm	250.0	2086	2781
                Frame#	Time	LPSIS			LASIS			LTH1			LTH2			LTH3			LTH4			LLFE			LMFE			LSH1			LSH2			LSH3			LSH4			LLMAL			LMMAL			LCAL			LMTP5			LTOE			LMTP1			RPSIS			RASIS			RTH1			RTH2			RTH3			RTH4			RLFE			RMFE			RSH1			RSH2			RSH3			RSH4			RLMAL			RMMAL			RCAL			RMTP1			RTOE			RMTP5		
		X1	Y1	Z1	X2	Y2	Z2	X3	Y3	Z3	X4	Y4	Z4	X5	Y5	Z5	X6	Y6	Z6	X7	Y7	Z7	X8	Y8	Z8	X9	Y9	Z9	X10	Y10	Z10	X11	Y11	Z11	X12	Y12	Z12	X13	Y13	Z13	X14	Y14	Z14	X15	Y15	Z15	X16	Y16	Z16	X17	Y17	Z17	X18	Y18	Z18	X19	Y19	Z19	X20	Y20	Z20	X21	Y21	Z21	X22	Y22	Z22	X23	Y23	Z23	X24	Y24	Z24	X25	Y25	Z25	X26	Y26	Z26	X27	Y27	Z27	X28	Y28	Z28	X29	Y29	Z29	X30	Y30	Z30	X31	Y31	Z31	X32	Y32	Z32	X33	Y33	Z33	X34	Y34	Z34	X35	Y35	Z35	X36	Y36	Z36

2086	8.34000	-2746.25513	1017.97766	318.60922	-2950.40845	991.31122	365.52887	-2939.20557	672.98175	414.82025	-2970.41357	619.20251	404.95023	-3010.10522	707.15405	418.88654	-3032.14673	650.40002	408.44394	-3053.13940	544.76947	385.65958	-3055.37915	539.34637	270.52060	-3028.60229	350.69006	394.13281	0.00000	0.00000	0.00000	-3089.23999	371.98218	404.76825	-3098.54419	329.61978	398.31219	-3162.48901	111.12415	362.97937	-3188.98535	135.90269	281.54578	-3122.99805	71.47823	307.88434	-3311.72217	94.92822	396.91245	-3339.85449	141.29781	338.69876	-3337.74609	121.03095	290.07431	-2745.96851	1032.80920	210.98904	-2932.11377	991.58990	130.89537	-2750.30273	669.48773	90.44237	-2747.54834	604.80487	110.24259	-2827.77490	664.19678	96.99554	-2816.89087	603.40350	109.53247	0.00000	0.00000	0.00000	-2766.44141	513.45300	126.17972	-2628.64990	395.95331	111.35694	-2612.99780	350.02411	118.62574	-2683.90625	369.33749	118.71793	-2661.89722	329.17783	124.92874	-2526.18213	130.71762	164.57230	-2547.57739	135.34648	249.61079	-2454.13770	111.49266	209.76456	-2662.07910	47.25150	235.19392	-2685.34619	66.68319	187.90918	-2631.27563	45.49253	124.71817
2087	8.34400	-2750.09595	1017.88910	319.00320	-2955.78223	990.90131	365.98767	-2945.55884	673.67780	414.63828	-2976.01880	619.21985	404.52640	-3015.63330	707.16925	418.63858	-3037.58691	650.37262	407.95871	-3058.84448	544.90942	385.04782	-3061.20288	539.52472	270.36172	-3033.27246	350.74069	393.39664	0.00000	0.00000	0.00000	-3093.57251	371.49991	404.44644	-3103.13403	329.40222	397.58301	-3165.97974	110.85573	362.33011	-3192.11084	134.89484	281.04758	-3124.69751	72.10048	307.30502	-3315.03052	92.49021	397.17218	-3342.95923	137.37665	338.47681	-3340.38379	116.74002	289.93896	-2750.49829	1032.33228	211.37961	-2939.32251	991.63702	131.90627	-2755.11841	668.85333	91.60819	-2752.23657	604.12720	111.43250	-2832.60010	663.40454	97.99277	-2821.57324	602.63745	110.56479	0.00000	0.00000	0.00000	-2771.01123	512.64246	127.13840	-2631.99829	396.57376	112.12630	-2615.76440	351.17212	118.70029	-2687.17163	369.24661	119.39218	-2664.55933	329.12128	125.41487	-2527.23999	132.06581	164.48407	-2548.63721	136.45479	249.52339	-2454.95459	113.49686	209.62865	-2662.28296	47.38887	235.14256	-2685.65186	66.72062	187.77477	-2631.38110	45.57928	124.75626
2088	8.34800	-2755.45605	1017.56732	319.65698	-2961.07153	990.47107	366.48941	-2950.22192	672.93439	414.25739	-2981.51855	619.26617	404.07092	-3021.10303	707.22284	418.39487	-3042.99243	650.41125	407.55194	-3064.30786	545.07996	384.66800	-3066.40796	539.55237	270.11942	-3038.32104	350.91864	392.93335	0.00000	0.00000	0.00000	-3098.14795	371.59680	402.99060	-3107.74634	329.31998	397.01602	-3168.15039	110.40764	362.16370	-3194.95898	133.78792	280.56696	-3126.12915	73.03217	307.47964	-3316.83374	89.29208	396.89377	-3346.56641	133.78780	338.00201	-3342.81201	112.23992	289.51270	-2756.38916	1031.75256	212.05646	-2942.93286	990.06763	131.76683	-2759.97778	668.17572	92.88753	-2756.99731	603.25562	112.86781	-2837.57373	662.61182	99.01860	-2826.49170	601.86920	111.59704	0.00000	0.00000	0.00000	-2775.87378	511.92316	128.13583	-2635.70996	397.12674	112.77954	-2619.24927	352.18521	118.75515	-2691.07593	369.45801	119.95934	-2667.56860	329.29691	125.98724	-2528.22021	133.44745	164.39526	-2549.71533	137.66245	249.44916	-2455.88208	115.57728	209.43840	-2662.57935	47.57584	235.10703	-2685.91797	66.70848	187.57846	-2631.54541	45.67965	124.78903
2089	8.35200	-2762.00488	1017.11444	320.46008	-2966.34790	990.12103	366.97833	-2956.42676	673.72168	414.26584	-2985.79614	618.52698	403.54016	-3026.44043	707.23102	418.19302	-3048.42993	650.41339	407.13324	-3069.57935	545.21924	384.41214	-3071.40308	539.65662	269.66467	-3042.78882	351.30487	392.07889	0.00000	0.00000	0.00000	-3102.93213	371.50241	402.47919	-3112.42773	329.32428	396.61813	-3170.63940	110.69880	361.44504	-3197.58228	132.62108	280.15402	-3127.63892	73.65517	307.23950	-3318.51465	86.13714	396.34436	-3349.30591	129.83244	337.23630	-3344.94312	107.94468	288.93777	-2761.09277	1031.40649	212.55504	-2948.34595	989.33398	132.21947	-2764.99341	667.61719	94.18037	-2761.97925	602.67102	114.09807	-2842.54932	661.84241	100.04311	-2831.43994	601.14099	112.65035	0.00000	0.00000	0.00000	-2780.76074	511.20920	129.14322	-2639.57886	397.59039	113.35813	-2622.36353	352.44919	119.84037	-2694.57593	369.40021	120.61904	-2671.05347	329.71304	126.53799	-2529.38574	134.86479	164.29128	-2550.95020	138.83066	249.33574	-2456.85327	117.74509	209.35524	-2662.70752	47.62531	235.10231	-2686.18750	66.62475	187.45795	-2631.66675	45.78063	124.80070
2090	8.35600	-2766.02466	1017.14673	320.80060	-2971.67310	989.85010	367.47266	-2961.73608	673.76483	414.15106	-2992.13354	619.35699	403.33533	-3031.82715	707.32129	417.94608	-3053.72266	650.44550	406.67297	-3074.78882	545.37018	384.29382	-3076.16602	539.82227	269.09555	-3047.86646	351.68585	391.72684	0.00000	0.00000	0.00000	-3107.76514	371.53696	401.99109	-3117.18823	329.35681	396.37830	-3172.24048	109.97247	361.39731	-3199.83105	131.44637	279.84094	-3128.88062	74.19234	307.24072	-3320.18823	83.06887	395.72247	-3351.42822	125.79115	336.43549	-3346.84790	103.99766	288.17090	-2766.43262	1030.97864	213.08479	-2953.78052	988.63104	132.70662	-2770.05078	666.92621	95.54263	-2766.91162	601.99341	115.46634	-2847.65625	661.08179	101.09145	-2836.49707	600.38580	113.69201	0.00000	0.00000	0.00000	-2785.79517	510.41327	130.22191	-2643.57251	398.14459	113.92997	-2626.11060	353.08289	120.27486	-2697.78027	369.26999	121.22964	-2674.16406	329.90421	127.07970	-2530.46973	136.39584	164.13626	-2552.13501	140.06555	249.20149	-2458.06836	119.89581	209.31256	-2662.79541	47.69162	235.02272	-2686.50122	66.51921	187.28951	-2631.83447	45.87617	124.83514
2091	8.36000	-2771.40332	1017.03113	321.38937	-2976.97290	989.66370	368.01755	-2966.23999	673.00873	413.70676	-2997.40039	619.37048	403.02170	-3037.25928	707.35803	417.63794	-3059.06201	650.52985	406.26855	-3080.03467	545.66827	384.31000	-3081.45190	539.98407	268.24622	-3052.33252	352.15161	391.18787	-3071.75146	312.48087	388.04733	-3112.76855	371.60278	401.71243	-3121.74316	329.29520	396.11655	-3174.59985	109.60114	361.41754	-3201.99097	130.52484	279.52304	0.00000	0.00000	0.00000	-3321.81519	80.02551	394.91559	-3353.75537	122.22211	335.56113	-3348.45361	100.44350	287.22327	-2771.88208	1030.31018	213.45599	-2959.26562	987.93640	133.18414	-2775.23804	666.30780	96.92995	-2772.03369	601.32147	116.82694	-2852.90503	660.33032	102.10089	-2841.63843	599.61420	114.72473	0.00000	0.00000	0.00000	-2791.07129	509.66653	131.19801	-2647.64478	398.79825	114.50660	-2629.49121	354.32941	120.59080	-2702.06592	369.45886	121.80295	-2677.66016	330.25452	127.57714	-2531.75146	138.00356	163.99115	-2553.52051	141.45912	249.02579	-2459.31567	122.23604	209.22087	-2663.02295	47.77436	234.99879	-2686.44604	66.18309	187.46219	-2631.96948	45.98459	124.82369
